<svg width="17" height="17" viewBox="0 0 17 17" fill="none" xmlns="http://www.w3.org/2000/svg">
<path d="M1.43825 13.9404C0.852798 14.5265 0.853333 15.4763 1.43945 16.0617C2.02557 16.6472 2.97531 16.6467 3.56077 16.0606L1.43825 13.9404ZM16.985 1.99947C16.9846 1.17104 16.3126 0.499845 15.4842 0.500312L1.9842 0.507922C1.15577 0.508389 0.484575 1.18034 0.485042 2.00877C0.485509 2.83719 1.15746 3.50839 1.98589 3.50792L13.9859 3.50116L13.9927 15.5012C13.9931 16.3296 14.6651 17.0008 15.4935 17.0003C16.3219 16.9998 16.9931 16.3279 16.9926 15.4995L16.985 1.99947ZM3.56077 16.0606L16.5463 3.06037L14.4238 0.94025L1.43825 13.9404L3.56077 16.0606Z" fill="white"/>
</svg>
