<svg width="22" height="22" viewBox="0 0 22 22" fill="none" xmlns="http://www.w3.org/2000/svg">
<path d="M15.5 13.848C15.5 14.01 15.464 14.177 15.387 14.339C15.3084 14.5064 15.2053 14.6611 15.081 14.798C14.86 15.041 14.617 15.216 14.341 15.329C14.071 15.442 13.778 15.5 13.463 15.5C13.003 15.5 12.512 15.392 11.993 15.172C11.4443 14.9341 10.9243 14.6349 10.443 14.28C9.91949 13.8976 9.42543 13.4764 8.965 13.02C8.50946 12.5621 8.08926 12.0704 7.708 11.549C7.35762 11.0719 7.06115 10.5574 6.824 10.015C6.608 9.5 6.5 9.01 6.5 8.543C6.5 8.237 6.554 7.945 6.662 7.675C6.77 7.4 6.942 7.148 7.181 6.923C7.469 6.639 7.784 6.5 8.118 6.5C8.244 6.5 8.37 6.527 8.483 6.581C8.6 6.635 8.703 6.716 8.785 6.833L9.831 8.305C9.911 8.417 9.971 8.521 10.011 8.62C10.051 8.714 10.074 8.809 10.074 8.894C10.0727 9.00742 10.0398 9.11824 9.979 9.214C9.90956 9.33107 9.82482 9.43835 9.727 9.533L9.384 9.889C9.36014 9.91235 9.34141 9.94041 9.32902 9.97141C9.31662 10.0024 9.31082 10.0356 9.312 10.069C9.312 10.104 9.317 10.136 9.326 10.172C9.339 10.208 9.353 10.235 9.362 10.262C9.442 10.411 9.582 10.604 9.781 10.838C9.984 11.072 10.2 11.311 10.434 11.549C10.678 11.788 10.912 12.008 11.151 12.211C11.385 12.408 11.579 12.543 11.732 12.624L11.814 12.661C11.8499 12.6738 11.8879 12.6799 11.926 12.679C11.9605 12.6797 11.9948 12.6733 12.0266 12.66C12.0585 12.6468 12.0872 12.627 12.111 12.602L12.453 12.264C12.566 12.152 12.674 12.067 12.778 12.012C12.8736 11.9511 12.9846 11.9185 13.098 11.918C13.1927 11.9194 13.2861 11.9394 13.373 11.977C13.472 12.017 13.576 12.075 13.688 12.152L15.18 13.21C15.2881 13.2803 15.3741 13.3798 15.428 13.497C15.4747 13.6082 15.4992 13.7274 15.5 13.848Z" stroke="white"/>
<path d="M21 11C21 16.5228 16.5228 21 11 21C5.47715 21 1 16.5228 1 11C1 5.47715 5.47715 1 11 1C16.5228 1 21 5.47715 21 11Z" stroke="white"/>
</svg>
