<svg width="22" height="22" viewBox="0 0 22 22" fill="none" xmlns="http://www.w3.org/2000/svg">
<path d="M1.375 20.625C1.375 21.385 1.98997 22 2.75 22H9.625V12.375H1.375V20.625Z" fill="white"/>
<path d="M12.375 22H19.25C20.01 22 20.625 21.385 20.625 20.625V12.375H12.375V22Z" fill="white"/>
<path d="M20.625 4.125H17.875C17.875 1.84628 16.0287 0 13.75 0C12.6892 0 11.7305 0.412156 11 1.07009C10.2695 0.412156 9.31081 0 8.25 0C5.97128 0 4.125 1.84628 4.125 4.125H1.375C0.614969 4.125 0 4.73997 0 5.5V8.25C0 9.01003 0.614969 9.625 1.375 9.625H9.625V4.125H6.875C6.875 3.36497 7.48997 2.75 8.25 2.75C9.01003 2.75 9.625 3.36497 9.625 4.125H12.375C12.375 3.36497 12.99 2.75 13.75 2.75C14.51 2.75 15.125 3.36497 15.125 4.125H12.375V9.625H20.625C21.385 9.625 22 9.01003 22 8.25V5.5C22 4.73997 21.385 4.125 20.625 4.125Z" fill="white"/>
</svg>
