<svg width="22" height="22" viewBox="0 0 22 22" fill="none" xmlns="http://www.w3.org/2000/svg">
<path d="M5.9 19.6L6.15725 19.1713C6.03858 19.1001 5.89572 19.0812 5.76266 19.1192L5.9 19.6ZM2.3 16L2.7839 16.1259C2.8155 16.0044 2.80025 15.8755 2.74118 15.7647L2.3 16ZM1.44 19.306L0.956104 19.1801L0.956085 19.1802L1.44 19.306ZM2.683 20.519L2.54566 20.0382L2.54542 20.0383L2.683 20.519ZM15.5 13.848L16 13.848L16 13.8447L15.5 13.848ZM15.387 14.339L14.9354 14.1244L14.9344 14.1266L15.387 14.339ZM15.081 14.798L15.4509 15.1344L15.4512 15.1341L15.081 14.798ZM14.341 15.329L14.1515 14.8663L14.148 14.8678L14.341 15.329ZM11.993 15.172L11.7941 15.6308L11.7979 15.6323L11.993 15.172ZM10.443 14.28L10.7397 13.8776L10.7379 13.8762L10.443 14.28ZM8.965 13.02L8.61053 13.3727L8.613 13.3751L8.965 13.02ZM7.708 11.549L8.1116 11.2539L8.11101 11.2531L7.708 11.549ZM6.824 10.015L6.36286 10.2084L6.36588 10.2153L6.824 10.015ZM6.662 7.675L7.12625 7.8607L7.1274 7.85777L6.662 7.675ZM7.181 6.923L7.52382 7.28715L7.53207 7.27902L7.181 6.923ZM8.483 6.581L8.26739 7.03217L8.27347 7.03498L8.483 6.581ZM8.785 6.833L8.37554 7.11997L8.37742 7.12262L8.785 6.833ZM9.831 8.305L9.42342 8.59462L9.42413 8.59562L9.831 8.305ZM10.011 8.62L9.54733 8.80734L9.55092 8.81578L10.011 8.62ZM10.074 8.894L10.574 8.89972V8.894H10.074ZM9.979 9.214L9.5569 8.94598L9.55283 8.9524L9.54895 8.95893L9.979 9.214ZM9.727 9.533L9.37931 9.17368L9.37301 9.17977L9.36693 9.18608L9.727 9.533ZM9.384 9.889L9.73369 10.2464L9.73895 10.2412L9.74407 10.2359L9.384 9.889ZM9.312 10.069H9.812V10.0602L9.81169 10.0514L9.312 10.069ZM9.326 10.172L8.84093 10.2933L8.84709 10.3179L8.85572 10.3418L9.326 10.172ZM9.362 10.262L8.88766 10.4201L8.90121 10.4608L8.92148 10.4985L9.362 10.262ZM9.781 10.838L9.40009 11.1619L9.40332 11.1656L9.781 10.838ZM10.434 11.549L10.0774 11.8996L10.0841 11.9062L10.434 11.549ZM11.151 12.211L10.8273 12.5921L10.829 12.5935L11.151 12.211ZM11.732 12.624L11.4981 13.0659L11.512 13.0733L11.5264 13.0798L11.732 12.624ZM11.814 12.661L11.6084 13.1168L11.6268 13.1251L11.646 13.1319L11.814 12.661ZM11.926 12.679L11.9367 12.1791L11.9254 12.1789L11.914 12.1791L11.926 12.679ZM12.111 12.602L11.7595 12.2464L11.7541 12.2518L11.7488 12.2574L12.111 12.602ZM12.453 12.264L12.8045 12.6196L12.805 12.6191L12.453 12.264ZM12.778 12.012L13.0117 12.454L13.0296 12.4445L13.0467 12.4337L12.778 12.012ZM13.098 11.918L13.1054 11.418L13.096 11.418L13.098 11.918ZM13.373 11.977L13.1746 12.4361L13.1857 12.4406L13.373 11.977ZM13.688 12.152L13.9773 11.7441L13.9713 11.74L13.688 12.152ZM15.18 13.21L14.8908 13.6179L14.8989 13.6237L14.9073 13.6291L15.18 13.21ZM15.428 13.497L15.8889 13.3032L15.8857 13.2955L15.8822 13.288L15.428 13.497ZM5.64275 20.0287C7.22135 20.9759 9.11042 21.5 11 21.5V20.5C9.28958 20.5 7.57865 20.0241 6.15725 19.1713L5.64275 20.0287ZM11 21.5C16.7761 21.5 21.5 16.7761 21.5 11H20.5C20.5 16.2239 16.2239 20.5 11 20.5V21.5ZM21.5 11C21.5 5.22386 16.7761 0.5 11 0.5V1.5C16.2239 1.5 20.5 5.77614 20.5 11H21.5ZM11 0.5C5.22386 0.5 0.5 5.22386 0.5 11H1.5C1.5 5.77614 5.77614 1.5 11 1.5V0.5ZM0.5 11C0.5 12.8937 1.02605 14.6738 1.85882 16.2353L2.74118 15.7647C1.97395 14.3262 1.5 12.7063 1.5 11H0.5ZM1.8161 15.8741L0.956104 19.1801L1.9239 19.4319L2.7839 16.1259L1.8161 15.8741ZM0.956085 19.1802C0.889532 19.4362 0.891859 19.7053 0.962831 19.9601L1.92616 19.6918C1.90251 19.6068 1.90173 19.5171 1.92392 19.4318L0.956085 19.1802ZM0.962831 19.9601C1.0338 20.2149 1.1709 20.4464 1.3602 20.6311L2.05862 19.9154C1.99552 19.8539 1.94982 19.7767 1.92616 19.6918L0.962831 19.9601ZM1.3602 20.6311C1.54951 20.8159 1.78431 20.9473 2.04078 21.012L2.28548 20.0424C2.19999 20.0208 2.12173 19.977 2.05862 19.9154L1.3602 20.6311ZM2.04078 21.012C2.29726 21.0767 2.56629 21.0725 2.82058 20.9997L2.54542 20.0383C2.46064 20.0626 2.37097 20.064 2.28548 20.0424L2.04078 21.012ZM2.82034 20.9998L6.03734 20.0808L5.76266 19.1192L2.54566 20.0382L2.82034 20.9998ZM15 13.848C15 13.9352 14.9808 14.0289 14.9354 14.1244L15.8386 14.5536C15.9472 14.3251 16 14.0848 16 13.848H15ZM14.9344 14.1266C14.877 14.2489 14.8016 14.3619 14.7108 14.4619L15.4512 15.1341C15.609 14.9603 15.7399 14.7639 15.8396 14.5514L14.9344 14.1266ZM14.7111 14.4616C14.5344 14.6559 14.3513 14.7845 14.1516 14.8663L14.5304 15.7917C14.8827 15.6475 15.1856 15.4261 15.4509 15.1344L14.7111 14.4616ZM14.148 14.8678C13.9422 14.9539 13.7152 15 13.463 15V16C13.8408 16 14.1998 15.9301 14.534 15.7902L14.148 14.8678ZM13.463 15C13.0819 15 12.6574 14.9106 12.1881 14.7117L11.7979 15.6323C12.3666 15.8734 12.9241 16 13.463 16V15ZM12.1919 14.7133C11.6778 14.4904 11.1907 14.21 10.7397 13.8776L10.1463 14.6824C10.658 15.0597 11.2108 15.3779 11.7941 15.6307L12.1919 14.7133ZM10.7379 13.8762C10.2346 13.5086 9.75965 13.1037 9.317 12.6649L8.613 13.3751C9.09121 13.8491 9.60435 14.2866 10.1481 14.6838L10.7379 13.8762ZM9.31946 12.6674C8.88173 12.2274 8.47795 11.7549 8.1116 11.2539L7.3044 11.8441C7.70056 12.3859 8.13719 12.8969 8.61054 13.3726L9.31946 12.6674ZM8.11101 11.2531C7.78248 10.8057 7.50449 10.3233 7.28212 9.81469L6.36588 10.2153C6.61781 10.7915 6.93277 11.3381 7.30499 11.8449L8.11101 11.2531ZM7.28509 9.82161C7.08978 9.35595 7 8.9318 7 8.543H6C6 9.0882 6.12622 9.64405 6.36291 10.2084L7.28509 9.82161ZM7 8.543C7 8.29636 7.04339 8.06782 7.12624 7.8607L6.19776 7.4893C6.06461 7.82218 6 8.17764 6 8.543H7ZM7.1274 7.85777C7.20646 7.65646 7.33451 7.4652 7.52373 7.28706L6.83827 6.55894C6.54949 6.8308 6.33354 7.14354 6.1966 7.49223L7.1274 7.85777ZM7.53207 7.27902C7.74397 7.07006 7.93803 7 8.118 7V6C7.62997 6 7.19403 6.20793 6.82993 6.56698L7.53207 7.27902ZM8.118 7C8.17382 7 8.22561 7.01216 8.26741 7.03213L8.69859 6.12987C8.51439 6.04184 8.31418 6 8.118 6V7ZM8.27347 7.03498C8.31521 7.05424 8.34731 7.07968 8.37555 7.11997L9.19445 6.54603C9.05869 6.35233 8.88479 6.21576 8.69253 6.12702L8.27347 7.03498ZM8.37742 7.12262L9.42342 8.59462L10.2386 8.01538L9.19258 6.54338L8.37742 7.12262ZM9.42413 8.59562C9.4888 8.68615 9.52637 8.75524 9.54741 8.80731L10.4746 8.43269C10.4156 8.28676 10.3332 8.14785 10.2379 8.01438L9.42413 8.59562ZM9.55092 8.81578C9.56087 8.83915 9.56706 8.85888 9.57055 8.87387C9.57413 8.8892 9.574 8.89578 9.574 8.894H10.574C10.574 8.72409 10.5295 8.56153 10.4711 8.42422L9.55092 8.81578ZM9.57403 8.88828C9.5738 8.90873 9.56787 8.92871 9.5569 8.94598L10.4011 9.48202C10.5117 9.30777 10.5716 9.10612 10.574 8.89972L9.57403 8.88828ZM9.54895 8.95893C9.50221 9.03774 9.44516 9.10996 9.37931 9.17368L10.0747 9.89232C10.2045 9.76674 10.3169 9.6244 10.409 9.46907L9.54895 8.95893ZM9.36693 9.18608L9.02393 9.54208L9.74407 10.2359L10.0871 9.87992L9.36693 9.18608ZM9.03431 9.53162C8.96074 9.60361 8.903 9.69015 8.86478 9.78571L9.79326 10.1571C9.77983 10.1907 9.75954 10.2211 9.73369 10.2464L9.03431 9.53162ZM8.86478 9.78571C8.82655 9.88128 8.80868 9.98376 8.81231 10.0866L9.81169 10.0514C9.81296 10.0875 9.80669 10.1235 9.79326 10.1571L8.86478 9.78571ZM8.812 10.069C8.812 10.1557 8.82504 10.2297 8.84093 10.2933L9.81107 10.0507C9.80973 10.0453 9.81012 10.046 9.81075 10.0504C9.81145 10.0555 9.812 10.062 9.812 10.069H8.812ZM8.85572 10.3418C8.86779 10.3752 8.88003 10.4035 8.88573 10.4169C8.88913 10.4248 8.89016 10.4273 8.89075 10.4288C8.89113 10.4297 8.88971 10.4263 8.88766 10.4201L9.83634 10.1039C9.82423 10.0676 9.81006 10.0351 9.80528 10.0239C9.79847 10.008 9.79721 10.0048 9.79628 10.0022L8.85572 10.3418ZM8.92148 10.4985C9.02634 10.6938 9.19296 10.9183 9.40011 11.1619L10.1619 10.5141C9.97104 10.2897 9.85766 10.1282 9.80252 10.0255L8.92148 10.4985ZM9.40332 11.1656C9.61084 11.4049 9.83408 11.652 10.0775 11.8995L10.7905 11.1985C10.5659 10.97 10.3572 10.7391 10.1587 10.5104L9.40332 11.1656ZM10.0841 11.9062C10.3322 12.1492 10.5756 12.3783 10.8273 12.5921L11.4747 11.8299C11.2484 11.6377 11.0238 11.4268 10.7839 11.1918L10.0841 11.9062ZM10.829 12.5935C11.0776 12.8028 11.3019 12.9621 11.4981 13.0659L11.9659 12.1821C11.8561 12.1239 11.6924 12.0132 11.473 11.8285L10.829 12.5935ZM11.5264 13.0798L11.6084 13.1168L12.0196 12.2052L11.9376 12.1682L11.5264 13.0798ZM11.646 13.1319C11.7396 13.1653 11.8386 13.1812 11.938 13.1789L11.914 12.1791C11.9371 12.1786 11.9602 12.1823 11.982 12.1901L11.646 13.1319ZM11.9153 13.1789C12.0193 13.1811 12.1227 13.1616 12.2188 13.1216L11.8345 12.1984C11.8669 12.1849 11.9017 12.1784 11.9367 12.1791L11.9153 13.1789ZM12.2188 13.1216C12.3148 13.0816 12.4015 13.022 12.4732 12.9466L11.7488 12.2574C11.7729 12.232 11.8021 12.2119 11.8345 12.1984L12.2188 13.1216ZM12.4625 12.9576L12.8045 12.6196L12.1015 11.9084L11.7595 12.2464L12.4625 12.9576ZM12.805 12.6191C12.8975 12.5274 12.9662 12.4781 13.0117 12.454L12.5443 11.57C12.3818 11.6559 12.2345 11.7766 12.101 11.9089L12.805 12.6191ZM13.0467 12.4337C13.0626 12.4235 13.0811 12.4181 13.1 12.418L13.096 11.418C12.8881 11.4189 12.6846 11.4786 12.5093 11.5903L13.0467 12.4337ZM13.0906 12.4179C13.1195 12.4184 13.1481 12.4245 13.1746 12.436L13.5714 11.518C13.4241 11.4544 13.2658 11.4204 13.1054 11.4181L13.0906 12.4179ZM13.1857 12.4406C13.2426 12.4636 13.3143 12.5018 13.4047 12.564L13.9713 11.74C13.8377 11.6482 13.7014 11.5704 13.5603 11.5134L13.1857 12.4406ZM13.3988 12.5599L14.8908 13.6179L15.4692 12.8021L13.9772 11.7441L13.3988 12.5599ZM14.9073 13.6291C14.9363 13.648 14.9593 13.6746 14.9738 13.706L15.8822 13.288C15.7888 13.0851 15.6399 12.9127 15.4527 12.7909L14.9073 13.6291ZM14.9671 13.6908C14.9885 13.7416 14.9996 13.7962 15 13.8513L16 13.8447C15.9988 13.6587 15.961 13.4747 15.8889 13.3032L14.9671 13.6908Z" fill="white"/>
</svg>
